<svg width="414" height="62" viewBox="0 0 414 62" fill="none" xmlns="http://www.w3.org/2000/svg">
<mask id="mask0_1103_1296" style="mask-type:luminance" maskUnits="userSpaceOnUse" x="0" y="0" width="414" height="62">
<path d="M414 0H0V62H414V0Z" fill="white"/>
</mask>
<g mask="url(#mask0_1103_1296)">
<path d="M342.255 60.6736C338.928 60.6736 335.813 60.6736 332.72 60.6736C331.988 60.6736 331.872 60.1471 331.628 59.7154C326.861 51.5081 322.024 43.306 317.326 35.0513C316.605 33.7931 315.88 33.1034 314.375 33.3456C313.348 33.5088 311.981 32.9139 311.324 33.5667C310.667 34.2195 311.128 35.5724 311.128 36.6148C311.128 44.1957 311.096 51.7818 311.128 59.368C311.128 60.3682 310.932 60.7368 309.846 60.6894C307.69 60.5946 305.524 60.6262 303.362 60.6894C302.61 60.6894 302.414 60.4893 302.414 59.747C302.435 40.5842 302.435 21.4232 302.414 2.26399C302.414 1.67436 302.414 1.29533 303.225 1.31639C311.207 1.48485 319.196 0.995252 327.168 1.69016C328.968 1.84239 330.745 2.19558 332.465 2.74306C336.767 4.13289 339.288 7.04414 340.061 11.4716C340.61 14.5393 340.635 17.6769 340.136 20.7529C339.235 26.2016 335.988 29.5656 330.77 31.1924C329.349 31.6704 327.88 31.9952 326.389 32.1611C325.219 32.2663 325.33 32.6033 325.86 33.3982C330.839 41.6038 335.804 49.8182 340.755 58.0413C341.2 58.8994 341.677 59.7154 342.255 60.6736ZM311.075 17.3678C311.075 20.1738 311.075 22.9798 311.075 25.791C311.075 26.2174 310.847 26.8018 311.695 26.7755C315.964 26.6596 320.26 27.0966 324.503 26.3912C327.777 25.8647 330.415 24.4117 331.353 20.9056C331.738 19.2391 331.884 17.5271 331.787 15.82C331.697 11.2399 329.605 8.91304 325.012 8.29184C320.621 7.69694 316.208 8.08654 311.806 7.94964C311.064 7.94964 311.059 8.30234 311.064 8.83404C311.08 11.7137 311.075 14.5408 311.075 17.3889V17.3678Z" fill="#272727"/>
<path d="M275.484 60.6728C272.184 60.6728 269.128 60.6359 266.098 60.6991C265.261 60.6991 265.075 60.1726 264.779 59.6462C259.909 51.2826 255.048 42.9121 250.195 34.5345C249.703 33.6711 249.189 33.2184 248.14 33.3395C247.26 33.432 246.372 33.432 245.492 33.3395C244.58 33.2605 244.289 33.5501 244.31 34.4872C244.374 37.1194 244.31 39.7517 244.31 42.3839C244.31 48.0432 244.278 53.6973 244.342 59.3514C244.342 60.4832 244.008 60.736 242.944 60.6886C241.005 60.5991 239.055 60.5938 237.117 60.6886C235.962 60.7465 235.602 60.478 235.602 59.2356C235.651 40.8239 235.662 22.4104 235.633 3.99518C235.633 3.3845 235.665 2.76855 235.633 2.15787C235.602 1.54719 235.745 1.29976 236.423 1.31555C244.443 1.47348 252.479 0.983893 260.493 1.69459C262.16 1.85874 263.805 2.19035 265.404 2.68432C269.615 3.9478 272.29 6.66431 273.154 10.9654C273.901 14.489 273.901 18.1287 273.154 21.6523C271.914 27.4433 267.888 30.2913 262.459 31.6549C261.526 31.9208 260.57 32.0971 259.603 32.1813C258.475 32.2339 258.512 32.5656 259.015 33.3921C262.349 38.8532 265.658 44.3247 268.942 49.8068C271.098 53.392 273.233 56.9508 275.484 60.6728ZM244.337 17.3459C244.337 20.1958 244.337 23.0421 244.337 25.8849C244.337 26.2956 244.188 26.7852 244.93 26.7641C249.237 26.6483 253.575 27.0958 257.855 26.3588C261.14 25.7955 263.73 24.2845 264.604 20.7784C264.978 19.155 265.119 17.4872 265.022 15.8245C264.837 11.0864 262.851 8.89641 258.136 8.26991C253.792 7.69081 249.422 8.07521 245.068 7.94351C244.347 7.91721 244.31 8.25941 244.315 8.81221C244.347 11.6761 244.337 14.5242 244.337 17.367V17.3459Z" fill="#272727"/>
<path d="M414 30.7183C414 36.8252 413.709 42.8951 411.797 48.7651C409.148 56.8619 403.787 61.0366 395.243 61.7526C390.74 62.1316 386.237 62.1421 381.814 61.2261C375.76 60.0048 371.781 56.4249 369.668 50.6971C367.999 46.2065 367.438 41.5264 367.215 36.7883C366.86 29.3285 366.966 21.9003 368.873 14.609C369.301 13.003 369.887 11.4425 370.621 9.9499C371.663 7.6638 373.235 5.65529 375.208 4.08879C377.181 2.52229 379.499 1.44227 381.973 0.93708C387.549 -0.29051 393.319 -0.36219 398.924 0.726501C406.452 2.1058 410.478 7.0702 412.31 14.1299C413.719 19.6103 414.011 25.1432 414 30.7183ZM375.76 31.0869C375.76 32.224 375.728 33.3664 375.76 34.5035C375.881 38.8415 376.215 43.1584 377.624 47.3121C378.954 51.2394 381.459 53.9769 385.687 54.7982C388.638 55.3455 391.662 55.3882 394.628 54.9245C398.75 54.3349 401.515 52.087 403.104 48.2755C403.823 46.4884 404.331 44.6247 404.619 42.7214C405.641 36.1934 405.599 29.6339 405.074 23.0743C404.898 19.9235 404.224 16.8199 403.077 13.8772C401.531 10.1394 398.84 7.8388 394.782 7.1913C392.606 6.8581 390.398 6.7769 388.203 6.9491C382.27 7.3914 379.017 9.9657 377.349 15.604C375.839 20.6632 375.775 25.875 375.775 31.0869H375.76Z" fill="#272727"/>
<path d="M0.0196318 31.0611C0.0196318 21.585 0.0196318 12.1089 0.0196318 2.63278C0.0196318 1.62726 0.236847 1.30613 1.30689 1.31666C7.88076 1.40089 14.4546 1.38509 21.0285 1.45879C23.1473 1.50231 25.2538 1.79028 27.3057 2.31691C32.195 3.50669 35.2198 6.52849 36.1998 11.4561C37.0476 15.5906 37.0259 19.8546 36.1362 23.9803C34.7324 30.4662 30.4099 33.8618 24.1009 35.1358C19.434 36.0834 14.7089 35.9255 9.99433 35.8834C8.9084 35.8834 8.61704 36.115 8.62764 37.2258C8.68591 44.6382 8.62766 52.0454 8.68063 59.4578C8.68063 60.4107 8.49523 60.7529 7.46227 60.7055C5.39105 60.616 3.30924 60.6212 1.23802 60.7055C0.215655 60.7529 0.0143346 60.4212 0.0196318 59.4631C0.0355236 50.0028 0.0196318 40.5319 0.0196318 31.0611ZM8.63294 18.6316C8.63294 21.8745 8.63294 25.1157 8.63294 28.3551C8.63294 28.8079 8.47402 29.3449 9.28979 29.3238C12.8125 29.2448 16.3457 29.5449 19.8472 29.0237C24.869 28.2709 27.5547 25.3807 28.0473 20.3847C28.2115 18.7339 28.2115 17.071 28.0473 15.4203C27.6341 11.135 25.5841 8.93969 21.3092 8.29209C17.4528 7.70779 13.5647 8.10259 9.69769 7.96049C8.81835 7.92359 8.60116 8.19739 8.63824 9.04489C8.67532 12.2405 8.63294 15.4361 8.63294 18.6316Z" fill="#272727"/>
<path d="M184.382 7.39611C182.941 12.1938 181.502 16.9898 180.065 21.784C176.262 34.4188 172.46 47.0536 168.66 59.6884C168.438 60.4201 168.13 60.7412 167.314 60.6939C165.153 60.6254 162.992 60.636 160.831 60.6939C159.962 60.6939 159.803 60.5623 160.084 59.6778C163.707 48.3012 167.272 36.9089 170.858 25.527C173.29 17.8145 175.748 10.1073 178.147 2.36323C178.396 1.5525 178.719 1.28401 179.583 1.31033C183.068 1.36298 186.554 1.35245 190.04 1.31033C190.808 1.31033 191.189 1.48932 191.433 2.26321C197.472 21.3944 203.532 40.5221 209.613 59.6462C209.878 60.478 209.745 60.6991 208.855 60.6991C206.694 60.6412 204.528 60.6149 202.372 60.6991C201.254 60.7465 200.782 60.3991 200.465 59.3198C196.086 44.7968 191.671 30.2826 187.221 15.7772C186.443 13.2292 185.675 10.6759 184.885 8.12791C184.795 7.89621 184.891 7.50141 184.382 7.39611Z" fill="#272727"/>
<path d="M110.851 29.4027C110.851 35.9149 110.984 40.732 112.234 45.4384C113.977 52.019 117.531 54.8092 124.417 55.1093C128.608 55.2559 132.796 54.7587 136.834 53.6352C137.851 53.3668 138.211 53.5194 138.296 54.625C138.413 56.1043 138.768 57.5626 138.995 59.0366C139.064 59.4894 139.218 59.9632 138.466 60.1422C131.15 61.8794 123.792 62.6902 116.344 61.0634C110.623 59.8158 106.857 56.3254 104.828 50.9082C103.207 46.5966 102.646 42.0955 102.386 37.5311C101.968 30.2082 102.053 22.9116 103.769 15.7203C104.632 12.1089 106.052 8.73959 108.6 5.9336C111.778 2.45904 115.905 1.0113 120.429 0.458527C126.268 -0.201913 132.179 0.181407 137.883 1.59039C138.879 1.8273 139.165 2.20634 138.942 3.16974C138.617 4.62335 138.379 6.09469 138.227 7.57619C138.143 8.47639 137.835 8.51849 137.078 8.31319C132.81 7.18309 128.387 6.74229 123.978 7.00759C118.654 7.27609 114.708 9.51879 112.854 14.7306C112.2 16.5912 111.733 18.5116 111.46 20.4636C111.038 23.4246 110.835 26.4123 110.851 29.4027Z" fill="#272727"/>
<path d="M72.5259 31.1921C72.5259 40.7103 72.5259 50.2232 72.5523 59.7414C72.5523 60.7206 72.3246 60.9892 71.3287 60.9523C69.125 60.8681 66.9161 60.8944 64.7125 60.9523C63.9602 60.9523 63.7695 60.747 63.7695 60.0099C63.7907 40.7068 63.7907 21.4036 63.7695 2.10044C63.7695 1.35814 63.9655 1.14756 64.7125 1.16336C66.9214 1.21074 69.1303 1.23706 71.334 1.16336C72.3299 1.12651 72.5523 1.40026 72.5523 2.37946C72.51 11.9872 72.5259 21.5896 72.5259 31.1921Z" fill="#272727"/>
<path d="M184.676 60.431C181.678 60.431 178.685 60.431 175.671 60.431C174.935 60.431 174.611 60.3467 174.913 59.4886C175.48 57.7935 175.973 56.0614 176.418 54.3294C176.435 54.2036 176.478 54.0826 176.543 53.9738C176.609 53.8649 176.696 53.7704 176.8 53.6961C176.903 53.6218 177.021 53.5691 177.146 53.5413C177.27 53.5135 177.399 53.5112 177.525 53.5345C182.282 53.5555 187.049 53.5555 191.827 53.5345C191.953 53.5112 192.082 53.5138 192.207 53.5419C192.331 53.5701 192.449 53.6233 192.552 53.6982C192.655 53.7732 192.742 53.8683 192.807 53.9777C192.872 54.0872 192.913 54.2087 192.929 54.3347C193.39 56.0667 193.872 57.7935 194.439 59.4939C194.73 60.3573 194.402 60.4362 193.676 60.431C190.673 60.4204 187.674 60.431 184.676 60.431Z" fill="#6EB43F"/>
</g>
</svg>
